<svg xmlns="http://www.w3.org/2000/svg" viewBox="0 0 64 64">
  <defs>
    <linearGradient id="bg" x1="0" y1="0" x2="0" y2="1">
      <stop offset="0%" stop-color="#1e1a17"/>
      <stop offset="100%" stop-color="#12100e"/>
    </linearGradient>
    <linearGradient id="accent" x1="0" y1="0" x2="1" y2="1">
      <stop offset="0%" stop-color="#d4915c"/>
      <stop offset="100%" stop-color="#c45a4a"/>
    </linearGradient>
  </defs>
  <rect width="64" height="64" rx="14" fill="url(#bg)"/>
  <rect x="2" y="2" width="60" height="60" rx="12" fill="none" stroke="#302a25" stroke-width="1.5"/>
  <!-- Database/server icon (Font Awesome Free 7.2.0, CC BY 4.0) -->
  <g transform="translate(1.5,1.4) scale(0.096)">
    <path d="M544 269.8C529.2 279.6 512.2 287.5 494.5 293.8C447.5 310.6 385.8 320 320 320C254.2 320 192.4 310.5 145.5 293.8C127.9 287.5 110.8 279.6 96 269.8L96 352C96 396.2 196.3 432 320 432C443.7 432 544 396.2 544 352L544 269.8zM544 192L544 144C544 99.8 443.7 64 320 64C196.3 64 96 99.8 96 144L96 192C96 236.2 196.3 272 320 272C443.7 272 544 236.2 544 192zM494.5 453.8C447.6 470.5 385.9 480 320 480C254.1 480 192.4 470.5 145.5 453.8C127.9 447.5 110.8 439.6 96 429.8L96 496C96 540.2 196.3 576 320 576C443.7 576 544 540.2 544 496L544 429.8C529.2 439.6 512.2 447.5 494.5 453.8z"
          fill="url(#accent)"/>
  </g>
</svg>
